<?xml version="1.0" encoding="UTF-8"?><svg id="Capa_2" xmlns="http://www.w3.org/2000/svg" viewBox="0 0 437.54 296.64"><defs><style>.cls-1{fill:#7c76a7;}.cls-2{fill:#7d75a7;}.cls-3{fill:#fff;}.cls-4{fill:#c4413a;}.cls-5{fill:#df3733;}.cls-6{fill:#3f3164;}.cls-7{fill:#3a2f63;}.cls-8{fill:#3a315d;}.cls-9{fill:#dc3232;}.cls-10{fill:#615953;}.cls-11{fill:#f18a76;}.cls-12{fill:#c03d36;}.cls-13{fill:#625753;}.cls-14{fill:#413171;}.cls-15{fill:#ce3b34;}.cls-16{fill:#9f9694;}.cls-17{fill:#c63a34;}.cls-18{fill:#5a5e4e;}.cls-19{fill:#fffeff;}.cls-20{fill:#af594d;}.cls-21{fill:#4f416f;}.cls-22{fill:#5f5654;}.cls-23{fill:#625751;}.cls-24{fill:#f18976;}.cls-25{fill:#a09693;}.cls-26{fill:#9c9692;}.cls-27{fill:#554f4b;}.cls-28{fill:#615753;}.cls-29{fill:#dd3734;}.cls-30{fill:#c4403c;}.cls-31{fill:#413172;}.cls-32{fill:#e95933;}.cls-33{fill:#423071;}.cls-34{fill:#e03632;}.cls-35{fill:#f88672;}.cls-36{fill:#7d74a7;}.cls-37{fill:#c8e1c4;}.cls-38{fill:#d73a2f;}.cls-39{fill:#f98772;}.cls-40{fill:#df3633;}.cls-41{fill:#cc3c35;}.cls-42{fill:#615752;}</style></defs><g id="Capa_1-2"><path class="cls-37" d="m253.54,0c-51.91,0-94,42.09-94,94,0,18.18,5.17,35.15,14.1,49.53l2.06-5.89h0c6.47-19.41,14.31-38.08,28.74-53.21.56-.59,1.2-1.12,1.8-1.67,2.67-3.39,5.71-6.4,9.14-9.01,9.53-8.84,20.02-16.2,32.25-20.88,4.65-4.07,6.38-10.06,9.81-14.94.93-1.32,1.33-3.01,2.83-3.92l.05-.09h0c.89-2.5,2.06-4.83,3.98-6.71,0-.05.01-.11.02-.16h0s0,0,0,0h0s0,0,0,0c.01,0,.02,0,.03,0-.36-.52-.77-1.02-1.06-1.57-1.2-2.24.1-3.58,1.96-4.16,1.63-.51,2.95.54,3.15,2.26.34,3-1.6,3.59-4.04,3.47.01.02.03.04.04.06,0,0,0,0,0,0-.03.03-.06.07-.09.1-.24,3.19-1.38,6.1-2.83,8.91-2.05,6.44-4.1,12.89-6.15,19.33,4.9,11.75,5.62,24.21,6.19,36.69.49,1,.46,2,.04,3-.09.03-.17.04-.26.07.94,2.8.89,5.6-.03,8.41-.31,1.14-.63,2.27-.94,3.41-.73,14.49-5.2,27.91-11.47,40.87-6.13,12.67-13.53,24.6-20.84,36.59,8.12,2.28,16.67,3.51,25.52,3.51,51.91,0,94-42.09,94-94S305.45,0,253.54,0Z"/><path class="cls-37" d="m178.55,138.21s-.05.04-.08.07l-2.48,5.49c.57-.75,1.45-2.76,2.55-5.56Z"/><path class="cls-31" d="m260.32,107.04c-.73,14.49-5.2,27.91-11.47,40.87-6.22,12.86-13.76,24.96-21.17,37.14-1.25,1.89-3.15,3.42-3.27,5.93-.06.64-.36,1.18-.74,1.68-.8.98-1.4,2.09-2.06,3.17-3.85,5.6-7.59,11.29-12.28,16.25-.91.69-1.81,1.38-2.72,2.07-1.89.77-3.62-.12-5.32-.65-9.86-3.11-19.35-7.13-28.54-11.83-1.76-.9-3.48-1.98-4.77-3.57-1.05-1.91-.69-3.88-.22-5.83,6.39-26.58,13.88-52.83,25.34-77.74,4.6-9.99,9.97-19.59,17.82-27.53.45-.3.95-.43,1.48-.42,4.56,1.61,8.24,4.8,12.51,6.96,9.91,5.04,20.01,9.45,31.04,11.4,1.66.29,3.2.82,4.38,2.1Z"/><path class="cls-34" d="m194.41,265.9c4.49-9.91,10.2-19.17,15.48-28.66.96-1.72,1.77-3.52,2.66-5.29,3.44-7.84,8.36-14.82,13.02-21.94.65-.92,1.42-1.73,2.12-2.61,1.14-1.31,1.79-3.12,3.7-3.64,3.62-3.25,6.11-7.71,10.72-9.88,2.93-.43,5.71-4.73,8.82-.33,1.36,4.53.66,8.78-1.42,13.01-4.75,9.68-12.06,17.5-18.54,25.93-5.17,6.73-10.83,13.04-16.67,19.19-4.67,4.69-9.42,9.3-14.72,13.3-1.02.44-1.81,1.24-2.73,1.83-1.12.72-2.33,1.26-2.44-.91Z"/><path class="cls-34" d="m143.58,199.81c-5.03,13.6-10.06,27.21-15.11,40.81-.32.86-.79,1.67-.93,1.96v-31.66c1.22-14.05,3.68-27.91,6.55-41.7,1.22-5.88,2.74-11.66,5.75-16.91,2.13-3.72,5.02-6.22,9.74-5.1,3.76,3.22,3.27,7.59,3.09,11.83-.4,9.79-2.42,19.26-5.61,28.51-.43,1.26-.21,2.64-.33,3.96-.3,3.05-1.29,5.85-3.15,8.31Z"/><path class="cls-40" d="m168.4,197.62c11.93,7.37,25.12,11.84,38.22,16.53-2.32,3.72-4.89,7.24-8.19,10.18-1.9.66-3.85,1.18-5.79.38-9.29-3.82-18.74-7.33-27.22-12.89-.36-.4-.62-.86-.8-1.36-.3-4.31.66-8.39,2.35-12.33.39-.43.87-.6,1.43-.5Z"/><path class="cls-33" d="m165.3,211.2c8.5,3.82,17.06,7.55,25.49,11.53,2.5,1.18,5.09,1.1,7.64,1.59-2,3.72-5.26,6.33-8.16,9.25-2.63,2.64-5.87,1.45-8.94,1.17-5.23,1-9.4-1.75-13.76-3.85-1.28-.71-2.54-1.46-3.75-2.29-.81-.62-1.69-1.19-1.68-2.39-.33-3.86.49-7.61,1.02-11.38.21-1.49.44-3.01,2.14-3.64Z"/><path class="cls-38" d="m171.45,249.08c-1.9,13.15-6.06,25.29-16.2,36.02.45-3.04.74-4.96,1.23-8.24-5.8,9-12.73,14.97-22.7,19.78,8.59-12.53,7.5-27.5,16.72-38.91-3.02.14-4.57,2.24-7.12,3.23,2.35-8.06,8.13-13.28,13.38-18.85,1.73-.35,2.93.03,2.9,2.11-1.6,3-4.9,4.35-6.57,7.05.59,0,1.21-.63,1.99-.85,1.79-.49,3.96-1.21,5.08.54,1.27,1.97-.85,3.36-2.09,4.5-8.29,7.61-11.44,17.64-13.96,28.84,5.48-3.39,8.38-8.16,11.45-12.76.74-1.11,1.31-2.32,2.04-3.44.61-.93,1.15-2.4,2.48-2.03,1.61.45,1.25,2.1,1.34,3.13,3.89-6.42,5.71-13.89,7.8-21.27,1.2-.49,1.84.09,2.24,1.15Z"/><path class="cls-42" d="m159.47,243.88c-.91-.59-1.81-1.18-2.72-1.77-.38-.13-.76-.27-1.14-.4,2.17-5.59,6.21-9.35,11.61-11.76,4.74,1.5,9.16,3.92,14.1,4.8-1.66,5.84-1.39,11.91-2.12,18.11-3.01-.44-5.01-2.93-7.75-3.77-.67-.3-1.33-.6-2-.91-3.94-.02-6.96-2.16-9.99-4.3Z"/><path class="cls-13" d="m226.37,210.32c-4.46,7.31-8.43,14.93-13.83,21.64.58-6.89.21-13.63-3.22-19.88,2.92-6.44,7.79-11.51,11.93-17.1,3.23,4.61,4.13,9.99,5.12,15.34Z"/><path class="cls-28" d="m143.58,199.81c.63-2.59,1.27-5.17,1.9-7.76,1.43-5.43,2.43-10.98,4.71-16.17,3.79-2.92,8.39-4.24,12.63-6.26,1.05-.5,2.25-.44,3.11.63.43,7.12-1.53,13.67-4.73,19.93-7.54.15-12.41,5.2-17.62,9.62Z"/><path class="cls-41" d="m150.62,176.01c-1.81,5.32-2.68,10.93-5.15,16.04.14-7.58,3.52-14.42,4.95-21.7,1.26-6.4,2.38-12.84,1.02-19.41-.3-1.43-.85-2.45-2.18-3.03-4.19-1.16-6.88-.06-9.32,4.13-2.78,4.79-4.37,10.05-5.45,15.44-1.62,8.12-3.44,16.22-4.22,24.49-.1,1.04.04,2.38-1.25,3.01-.1.05-.33-.06-.46-.16-.22-.16-.27-.47-.2-.85.13-11.79,1.53-23.43,4.08-34.93,1.01-4.53,2.49-8.96,5.66-12.51,4.85-5.45,12.13-3.84,14.31,3.15,1.26,4.02,1.32,8.16.65,12.29-.32,1.96-.84,3.89-.43,5.9.95,1.42.61,2.85.03,4.29-.52,1.36-1.2,2.64-2.04,3.83Z"/><path class="cls-39" d="m214.3,251.69c5.65-8.59,12.92-15.9,19.02-24.14,3.94-5.33,8.05-10.54,11.94-15.91,3.8-5.25,6.13-11.01,5.09-17.7,4.94.97,4.41,4.68,3.72,8.06-1.19,5.8-4.31,10.73-7.95,15.29-4.63,5.81-9.18,11.69-14.49,16.93-.95.93-1.87,1.89-2.21,3.24-4.77,5.03-9.36,10.25-15.11,14.24Z"/><path class="cls-35" d="m128.37,194c2.2-5.57,1.67-11.6,3.01-17.34,1.58-6.74,2.51-13.62,5-20.15,1.33-3.49,3-6.73,6.09-8.86,2.14-1.47,4.67-3.06,6.79.27-4.27-.37-6.75,1.99-8.55,5.49-5.07,9.87-5.94,20.84-8.26,31.43-1.9,8.64-2.21,17.58-4.91,26.08.03-5.65-.97-11.36.83-16.93Z"/><path class="cls-15" d="m229.41,237.45c.98-4.69,5.17-7.08,7.74-10.64,5.7-7.89,12.89-14.78,15.62-24.58.94-3.37.69-6.2-2.42-8.29-2.72-3.47-5.49.37-8.23-.05,3.6-2.97,7.47-4.45,11.67-1.33,4.23,3.15,3.74,7.47,2.15,11.7-2.5,6.61-6.8,12.1-11.52,17.25-4.93,5.38-9.99,10.63-15,15.94Z"/><path class="cls-6" d="m161.2,190.18c.68-6.9,3.83-13.28,4.19-20.24-.63-1.14,0-2.16.33-3.2.39-1.04.92-1.99,1.64-2.84,2.04-6.62,4.08-13.24,6.11-19.86.73-.64,1.47-.58,2.22-.05.91,1.4.61,2.86.18,4.3-4.16,14.12-7.87,28.36-11.21,42.69-.23.98-.61,1.89-1.36,2.6-1.06.8-1.98.74-2.72-.46.21-.98.41-1.97.62-2.95Z"/><path class="cls-36" d="m165.3,211.2c-.93,5.23-1.86,10.45-2.78,15.68-.29.33-.61.35-.95.08.06-1.69-1.89-2.16-2.2-3.63-2.27-4.59-1.05-9.27-.42-13.94.22-.48.52-.91.89-1.28,2.75-1.31,4.03.74,5.48,2.41.06.23.05.47-.02.7Z"/><path class="cls-26" d="m167.22,229.94c-3.87,3.92-7.74,7.84-11.61,11.77-1.45-.51-2.91-1.01-4.36-1.52,3.62-4.93,7.34-9.76,13.1-12.43,1.03.63,2.3.95,2.87,2.19Z"/><path class="cls-23" d="m231.39,203.77c-.98,1.33-1.95,2.65-2.93,3.98-5-4.19-5.53-9.81-5.05-15.75.34-.34.67-.68,1.01-1.02,2.48,4.18,3.66,9.07,6.97,12.79Z"/><path class="cls-22" d="m167.35,163.9c0,1.07.27,2.21-.68,3.07-3.23,1.83-6.43,3.73-9.95,4.96-1.63.57-3.33,1.5-5.06.19.32-1.41.64-2.82.97-4.23,5.06-.79,9.94-2.2,14.72-3.99Z"/><path class="cls-27" d="m164.35,227.75c-4.37,4.14-8.73,8.29-13.1,12.43-2.03-.15-2.14-.8-.71-2.2,3.72-3.63,7.36-7.35,11.03-11.04.32.05.64.02.95-.08.61.29,1.23.58,1.84.88Z"/><path class="cls-21" d="m160.31,208.22c-1.46,4.96-.69,10.06-.95,15.1-2.04-.98-2.92-2.75-2.72-4.83.37-3.9.2-7.89,1.55-11.67,1.33-.47,1.9.2,2.12,1.4Z"/><path class="cls-4" d="m160.31,208.22c-.71-.47-1.41-.94-2.12-1.4.17-4.67,1.15-9.2,2.39-13.69.64.17,1.27.33,1.91.5.4.37.67.82.82,1.34-.28,4.41-.12,8.93-2.88,12.78l-.12.47Z"/><path class="cls-30" d="m194.41,265.9c2.16,2.18,3.23-1.84,5.17-.92-2.52,2.36-5.03,4.71-8.28,7.76.47-3.29,1.8-5.06,3.1-6.84Z"/><path class="cls-14" d="m255.32,55.45c4.9,11.75,5.62,24.21,6.19,36.69.49,1,.46,2,.04,3-3.3,1-6.2-.64-9.14-1.56-9.37-2.93-18.45-6.57-26.88-11.67-1.56-.94-3.19-1.81-4.23-3.4-.55-1.25-.02-2.32.79-3.14,8.21-8.36,16.98-15.98,27.74-20.98,1.56-.1,3.1.36,4.67.2.46.1.74.38.83.85Z"/><path class="cls-5" d="m221.34,77.66c12.09,8.52,25.83,13.25,39.87,17.28,1.04,2.89,1.01,5.78.05,8.68-.31,1.14-.63,2.27-.94,3.41-17.58-2.78-33.57-9.35-47.82-20.07.49-4.69,4.76-6.32,7.48-9.2.44-.18.9-.21,1.36-.09Z"/><path class="cls-7" d="m177.43,138.93c-.67-.14-1.34-.29-2.01-.44,6.52-19.72,14.39-38.71,29.03-54.06.56-.59,1.2-1.12,1.8-1.67.94-.19,1.38.34,1.64,1.13.11,1.67-.96,2.78-1.93,3.89-11.47,13.05-18.95,28.27-24.6,44.54-.83,2.39-1.14,5.29-3.92,6.61Z"/><path class="cls-8" d="m215.39,73.75c9.53-8.84,20.03-16.2,32.25-20.88,1.15-.45,1.89-.2,1.99,1.16-11.2,6.07-21.68,13.23-31.62,21.19-.46.19-.93.26-1.42.2-.73-.31-1.16-.85-1.2-1.67Z"/><path class="cls-17" d="m255.32,55.45c-.27-.15-.55-.23-.86-.24-4.02-.76-4.63-1.82-2.59-5.44,2.93-5.19,5.51-10.55,8.4-15.76l.05-.09c1.8-.01,1.67.99,1.16,2.2l-6.15,19.33Z"/><path class="cls-20" d="m260.27,34.01c-1.66,5.95-5.13,11.06-7.73,16.58-1.16,2.47-1.22,4.11,1.92,4.62-1.49,1.61-2.85.2-4.26-.18-.37-.36-1-.44-1.16-1.04-.06-.9-.82-.89-1.41-1.11,4.65-4.07,6.38-10.06,9.81-14.94.93-1.32,1.33-3.01,2.83-3.92Z"/><path class="cls-18" d="m264.4,27.12c-.37-.54-.8-1.06-1.11-1.63-1.2-2.24.1-3.58,1.96-4.16,1.63-.51,2.95.54,3.15,2.26.34,3.02-1.62,3.6-4.07,3.47l.08.06Z"/><path class="cls-12" d="m215.39,73.75c.38.39.76.79,1.13,1.18-.69,4.64-4.76,6.49-7.67,9.3-.46.16-.92.14-1.35-.09-.42-.46-.84-.92-1.25-1.38,2.67-3.39,5.71-6.4,9.14-9.01Z"/><path class="cls-20" d="m261.48,36.12c-.14-.86-.3-1.71-1.16-2.19.9-2.54,2.1-4.91,4.08-6.81,0,0-.08-.06-.08-.06-.21,3.25-1.37,6.21-2.84,9.07Z"/><path class="cls-1" d="m207.5,84.14c.28-.1.56-.19.85-.26,1.8.37,3.53.79,3.13,3.27-4.06,6.81-9.46,12.67-13.17,19.76-10.12,19.36-16.84,39.97-22.81,60.85-2.81,9.83-5.95,19.62-7.09,29.86-.25.19-.52.31-.83.36-2.35-.33-3.87-1.75-4.93-3.76-.08-.19-.13-.38-.15-.58,4.04-16.62,8.27-33.19,13.22-49.57,2.01-1.23,10.81-29.98,17.74-41.36,4.06-6.67,9.06-12.6,14.05-18.55Z"/><path class="cls-29" d="m218.67,144.13c-13.17,1.07-21.59-10.12-21.42-20.43.2-12.52,8.89-21.57,21.24-21.56,11.99,0,21.05,9.09,21.07,21.12.01,12.56-8.26,20.82-20.88,20.86Z"/><path class="cls-24" d="m211.47,87.15c-.42-1.69-2.37-1.9-3.12-3.26,2.72-2.98,5.45-5.97,8.17-8.95.33,0,.65-.03.97-.12,2.03.03,3.11.98,2.99,3.09-2.66,3.02-5.32,6.04-7.99,9.06-.34.06-.69.12-1.03.18Z"/><path class="cls-16" d="m223.41,191.99c1.43,5.33,2.11,10.91,5.05,15.76-.31,1.17-1.15,1.91-2.09,2.56-2.99-4.68-3.8-10.1-5.12-15.34.35-1.26.72-2.5,2.16-2.98Z"/><path class="cls-11" d="m162.64,194.21c1.71,1.16,3.86,1.76,4.93,3.76-.75,4.18-1.5,8.36-2.25,12.53-1.63-.92-3.26-1.84-4.89-2.76.74-4.51,1.47-9.03,2.21-13.54Z"/><path class="cls-32" d="m159.47,243.88c3.79.36,6.83,2.45,9.98,4.3-.31,9.08-4.12,16.81-9.11,24.91-.96-2.65,1.07-4.52-.56-6.46-3.71,6.56-7.4,13.03-13.35,17.76-1.04.82-1.78,3.04-3.51,1.73-1.16-.88-.11-2.43.19-3.71,2.81-11.77,6.98-22.79,17.31-30.73-4.42-1.86-6.87,1.46-10.56,2.06,2.58-4.3,5.84-7.3,9.59-9.84Z"/><path class="cls-25" d="m151.66,172.13c3.85-.49,7.16-2.42,10.63-3.94,1.36-.59,2.48-2.47,4.38-1.22-.43.99-.85,1.98-1.28,2.97-5.08,1.63-9.45,4.99-14.77,6.07-.37-1.49.09-2.75,1.04-3.89Z"/><path class="cls-2" d="m220.49,77.9c-1-1.03-2-2.06-3-3.09,9.35-8.73,19.72-15.9,31.56-20.83.38.35.77.7,1.16,1.04-10.71,6.16-20.43,13.58-28.86,22.64-.26.16-.55.24-.86.24Z"/><path class="cls-10" d="m233.52,123.18c-.05,9.45-6.75,16.81-15.26,16.76-8.18-.04-14.98-7.58-14.94-16.55.04-9.53,6.21-16.25,15.02-16.35,8.75-.1,15.23,6.79,15.18,16.14Z"/><polygon class="cls-7" points="173.46 144.04 175.7 137.64 178.89 137.35 175.42 145.04 173.46 144.04"/><circle class="cls-19" cx="312.54" cy="46" r="11"/><circle class="cls-19" cx="327.54" cy="50" r="3.25"/><circle class="cls-19" cx="324.54" cy="60" r="4.99"/><path class="cls-3" d="m4.59,88.37H.39v-34.27h20.15v3.54H4.59v12.54h14.98v3.54H4.59v14.65Z"/><path class="cls-3" d="m55.04,54.1v22.17c0,3.91-1.1,6.98-3.31,9.21s-5.23,3.35-9.09,3.35-6.83-1.12-8.94-3.38-3.16-5.34-3.16-9.28v-22.08h3.72v22.36c0,2.86.73,5.05,2.19,6.59s3.61,2.3,6.44,2.3,4.78-.77,6.24-2.31,2.19-3.75,2.19-6.62v-22.31h3.72Z"/><path class="cls-3" d="m79.65,87.37h-3.98v-30.73h-10.85v-3.54h25.69v3.54h-10.85v30.73Z"/><path class="cls-3" d="m124.54,53.1v22.17c0,3.91-1.12,6.98-3.37,9.21s-5.34,3.35-9.27,3.35-6.97-1.12-9.13-3.38-3.23-5.34-3.23-9.28v-22.08h3.8v22.36c0,2.86.74,5.05,2.23,6.59s3.68,2.3,6.57,2.3,4.88-.77,6.37-2.31,2.23-3.75,2.23-6.62v-22.31h3.8Z"/><path class="cls-3" d="m140.72,73.12v14.25h-4.11v-34.27h9.71c4.34,0,7.55.8,9.62,2.41s3.11,4.03,3.11,7.27c0,4.53-2.37,7.59-7.12,9.19l9.61,15.4h-4.87l-8.57-14.25h-7.38Zm0-3.42h5.64c2.9,0,5.03-.56,6.39-1.68s2.03-2.79,2.03-5.03-.69-3.9-2.07-4.9-3.59-1.5-6.64-1.5h-5.35v13.1Z"/><path class="cls-3" d="m191.54,87h-22v-32.9h22v3.4h-17.41v10.6h16.36v3.38h-16.36v12.11h17.41v3.42Z"/><path class="cls-9" d="m80.54,141.57h-5.63l-11.46-17.43-11.66,17.43h-5.25l14.17-20.71-13.21-18.92h5.48l10.59,15.69,10.67-15.69h5.28l-13.21,18.76,14.23,20.87Z"/><path class="cls-9" d="m129.54,113.49c0,4.01-1.45,7.1-4.35,9.26-2.9,2.16-7.05,3.24-12.45,3.24h-4.94v15.59h-4.88v-39.63h10.89c10.49,0,15.74,3.85,15.74,11.55Zm-21.74,8.54h4.39c4.33,0,7.46-.66,9.39-1.98,1.93-1.32,2.9-3.43,2.9-6.34,0-2.62-.91-4.57-2.73-5.85s-4.65-1.92-8.5-1.92h-5.46v16.1Z"/><path class="cls-9" d="m153.33,141.57v-39.63h4.61v35.45h17.48v4.17h-22.09Z"/><path class="cls-9" d="m267.53,125.09v16.48h-4.15v-39.63h9.8c4.38,0,7.62.93,9.71,2.79,2.09,1.86,3.14,4.66,3.14,8.4,0,5.24-2.39,8.78-7.18,10.62l9.7,17.81h-4.91l-8.65-16.48h-7.45Zm0-3.96h5.69c2.93,0,5.08-.65,6.45-1.94,1.37-1.29,2.05-3.23,2.05-5.81s-.7-4.51-2.09-5.67c-1.39-1.16-3.63-1.73-6.71-1.73h-5.4v15.15Z"/><path class="cls-9" d="m339.54,141.57h-25.84v-39.63h25.84v4.09h-20.45v12.77h19.22v4.07h-19.22v14.58h20.45v4.12Z"/><path class="cls-9" d="m368.51,125.09v16.48h-4.95v-39.63h11.67c5.22,0,9.07.93,11.57,2.79,2.49,1.86,3.74,4.66,3.74,8.4,0,5.24-2.85,8.78-8.55,10.62l11.55,17.81h-5.85l-10.3-16.48h-8.88Zm0-3.96h6.78c3.49,0,6.05-.65,7.68-1.94s2.44-3.23,2.44-5.81-.83-4.51-2.49-5.67c-1.66-1.16-4.32-1.73-7.99-1.73h-6.43v15.15Z"/><path class="cls-3" d="m271.67,178l-3.13-7h-10l-2.34,7h-2.81l9.43-23.39h2.33l9.38,23.39h-2.87Zm-3.83-9.85l-2.77-7.22c-.36-.91-.73-2.03-1.11-3.36-.24,1.02-.58,2.14-1.03,3.36l-2.81,7.22h7.72Z"/><path class="cls-3" d="m325.67,178l-3.13-7h-10l-2.34,7h-2.81l9.43-23.39h2.33l9.38,23.39h-2.87Zm-3.83-9.85l-2.77-7.22c-.36-.91-.73-2.03-1.11-3.36-.24,1.02-.58,2.14-1.03,3.36l-2.81,7.22h7.72Z"/><path class="cls-3" d="m293.39,156.77c-2.84,0-5.08.84-6.73,2.53-1.64,1.69-2.47,4-2.47,6.94s.79,5.35,2.38,7c1.59,1.65,3.85,2.47,6.78,2.47,1.8,0,3.86-.29,6.17-.87v2.35c-1.79.6-4,.9-6.63.9-3.81,0-6.75-1.03-8.82-3.09s-3.1-4.99-3.1-8.79c0-2.38.5-4.46,1.49-6.25,1-1.79,2.43-3.17,4.31-4.14,1.88-.97,4.09-1.45,6.64-1.45,2.71,0,5.08.44,7.11,1.33l-1.27,2.3c-1.96-.82-3.91-1.23-5.87-1.23Z"/><path class="cls-3" d="m355.29,166.02c0,3.81-1.03,6.72-3.1,8.74-2.07,2.01-5.04,3.02-8.93,3.02h-6.39v-23.08h7.07c3.59,0,6.38.99,8.37,2.98,1.99,1.99,2.98,4.77,2.98,8.33Zm-2.84.09c0-3.01-.76-5.28-2.27-6.8-1.51-1.53-3.75-2.29-6.73-2.29h-3.9v18.44h3.27c3.2,0,5.6-.79,7.21-2.36,1.61-1.57,2.42-3.9,2.42-6.98Z"/><path class="cls-3" d="m379.54,177.78h-15.1v-23.08h15.1v2.38h-11.95v7.43h11.23v2.37h-11.23v8.49h11.95v2.4Z"/><path class="cls-3" d="m398.63,177.78l-7.83-20.46h-.13c.15,1.62.22,3.55.22,5.78v14.68h-2.48v-23.08h4.04l7.31,19.04h.13l7.37-19.04h4.01v23.08h-2.68v-14.87c0-1.71.07-3.56.22-5.56h-.13l-7.89,20.43h-2.16Z"/><path class="cls-3" d="m428.48,166.35l6.16-11.65h2.9l-7.7,14.26v9.04h-2.71v-8.91l-7.69-14.39h2.94l6.11,11.65Z"/><path class="cls-9" d="m25.54,141.57H0v-39.63h25.54v4.09H5.33v12.77h18.99v4.07H5.33v14.58h20.21v4.12Z"/><path class="cls-9" d="m437.54,131.21c0,3.39-1.22,6.04-3.65,7.94s-5.74,2.85-9.91,2.85c-4.52,0-8-.59-10.43-1.77v-4.33c1.57.67,3.27,1.2,5.11,1.58s3.67.58,5.48.58c2.96,0,5.18-.57,6.68-1.7s2.24-2.71,2.24-4.74c0-1.34-.27-2.43-.8-3.28s-1.42-1.64-2.66-2.36-3.13-1.54-5.67-2.45c-3.55-1.28-6.08-2.81-7.6-4.56s-2.28-4.05-2.28-6.89c0-2.97,1.1-5.34,3.31-7.1s5.13-2.64,8.77-2.64,7.28.7,10.46,2.11l-1.38,3.9c-3.15-1.34-6.21-2-9.18-2-2.35,0-4.18.51-5.5,1.53s-1.98,2.44-1.98,4.25c0,1.34.24,2.43.73,3.28s1.31,1.64,2.47,2.35,2.93,1.5,5.31,2.36c4,1.44,6.75,2.99,8.26,4.64s2.26,3.8,2.26,6.44Z"/></g></svg>