<?xml version="1.0" encoding="utf-8"?>
<!-- Generator: Adobe Illustrator 27.6.1, SVG Export Plug-In . SVG Version: 6.00 Build 0)  -->
<svg version="1.1" id="Capa_2_00000119802306078259404120000001338119355199455873_"
	 xmlns="http://www.w3.org/2000/svg" xmlns:xlink="http://www.w3.org/1999/xlink" x="0px" y="0px" viewBox="0 0 166.8 300"
	 style="enable-background:new 0 0 166.8 300;" xml:space="preserve">
<style type="text/css">
	.st0{fill:#C8E1C4;}
	.st1{fill:#413172;}
	.st2{fill:#E03632;}
	.st3{fill:#DF3633;}
	.st4{fill:#423071;}
	.st5{fill:#D73A2F;}
	.st6{fill:#615752;}
	.st7{fill:#625753;}
	.st8{fill:#615753;}
	.st9{fill:#CC3C35;}
	.st10{fill:#F98772;}
	.st11{fill:#F88672;}
	.st12{fill:#CE3B34;}
	.st13{fill:#3F3164;}
	.st14{fill:#7D74A7;}
	.st15{fill:#9C9692;}
	.st16{fill:#625751;}
	.st17{fill:#5F5654;}
	.st18{fill:#554F4B;}
	.st19{fill:#4F416F;}
	.st20{fill:#C4413A;}
	.st21{fill:#C4403C;}
	.st22{fill:#413171;}
	.st23{fill:#DF3733;}
	.st24{fill:#3A2F63;}
	.st25{fill:#3A315D;}
	.st26{fill:#C63A34;}
	.st27{fill:#AF594D;}
	.st28{fill:#C03D36;}
	.st29{fill:#7C76A7;}
	.st30{fill:#DD3734;}
	.st31{fill:#F18976;}
	.st32{fill:#9F9694;}
	.st33{fill:#F18A76;}
	.st34{fill:#E95933;}
	.st35{fill:#A09693;}
	.st36{fill:#7D75A7;}
	.st37{fill:#615953;}
	.st38{fill:#5A5E4E;}
</style>
<g>
	<path class="st0" d="M62.7,127.8C62.7,127.8,62.7,127.9,62.7,127.8l-2.7,5.9C60.6,133,61.5,130.8,62.7,127.8L62.7,127.8z"/>
	<path class="st1" d="M150.2,94.5c-0.8,15.5-5.6,29.9-12.3,43.7c-6.7,13.8-14.7,26.7-22.6,39.7c-1.3,2-3.4,3.7-3.5,6.3
		c-0.1,0.7-0.4,1.3-0.8,1.8c-0.9,1-1.5,2.2-2.2,3.4c-4.1,6-8.1,12.1-13.1,17.4c-1,0.7-1.9,1.5-2.9,2.2c-2,0.8-3.9-0.1-5.7-0.7
		c-10.5-3.3-20.7-7.6-30.5-12.7c-1.9-1-3.7-2.1-5.1-3.8c-1.1-2-0.7-4.2-0.2-6.2c6.8-28.4,14.8-56.5,27.1-83.2
		c4.9-10.7,10.7-21,19.1-29.4c0.5-0.3,1-0.5,1.6-0.4c4.9,1.7,8.8,5.1,13.4,7.4c10.6,5.4,21.4,10.1,33.2,12.2
		C147.3,92.6,148.9,93.1,150.2,94.5L150.2,94.5z"/>
	<path class="st2" d="M79.7,264.4c4.8-10.6,10.9-20.5,16.6-30.7c1-1.8,1.9-3.8,2.8-5.7c3.7-8.4,8.9-15.9,13.9-23.5
		c0.7-1,1.5-1.9,2.3-2.8c1.2-1.4,1.9-3.3,4-3.9c3.9-3.5,6.5-8.2,11.5-10.6c3.1-0.5,6.1-5.1,9.4-0.4c1.5,4.8,0.7,9.4-1.5,13.9
		c-5.1,10.4-12.9,18.7-19.8,27.7c-5.5,7.2-11.6,13.9-17.8,20.5c-5,5-10.1,9.9-15.7,14.2c-1.1,0.5-1.9,1.3-2.9,2
		C81.1,266.2,79.8,266.8,79.7,264.4L79.7,264.4z"/>
	<path class="st2" d="M25.3,193.7c-5.4,14.5-10.8,29.1-16.2,43.7c-0.3,0.9-0.8,1.8-1,2.1v-33.9c1.3-15,3.9-29.9,7-44.6
		c1.3-6.3,2.9-12.5,6.2-18.1c2.3-4,5.4-6.7,10.4-5.5c4,3.4,3.5,8.1,3.3,12.7c-0.4,10.5-2.6,20.6-6,30.5c-0.5,1.3-0.2,2.8-0.4,4.2
		C28.4,188.1,27.3,191.1,25.3,193.7L25.3,193.7z"/>
	<path class="st3" d="M51.9,191.4c12.8,7.9,26.9,12.7,40.9,17.7c-2.5,4-5.2,7.7-8.8,10.9c-2,0.7-4.1,1.3-6.2,0.4
		c-9.9-4.1-20-7.8-29.1-13.8c-0.4-0.4-0.7-0.9-0.9-1.5c-0.3-4.6,0.7-9,2.5-13.2C50.7,191.5,51.3,191.3,51.9,191.4L51.9,191.4z"/>
	<path class="st4" d="M48.5,205.9c9.1,4.1,18.2,8.1,27.3,12.3c2.7,1.3,5.4,1.2,8.2,1.7c-2.1,4-5.6,6.8-8.7,9.9
		c-2.8,2.8-6.3,1.6-9.6,1.3c-5.6,1.1-10.1-1.9-14.7-4.1c-1.4-0.8-2.7-1.6-4-2.4c-0.9-0.7-1.8-1.3-1.8-2.6c-0.4-4.1,0.5-8.1,1.1-12.2
		C46.5,208.2,46.7,206.6,48.5,205.9L48.5,205.9z"/>
	<path class="st5" d="M55.1,246.4c-2,14.1-6.5,27.1-17.3,38.5c0.5-3.3,0.8-5.3,1.3-8.8c-6.2,9.6-13.6,16-24.3,21.2
		c9.2-13.4,8-29.4,17.9-41.6c-3.2,0.1-4.9,2.4-7.6,3.5c2.5-8.6,8.7-14.2,14.3-20.2c1.9-0.4,3.1,0,3.1,2.3c-1.7,3.2-5.2,4.7-7,7.5
		c0.6,0,1.3-0.7,2.1-0.9c1.9-0.5,4.2-1.3,5.4,0.6c1.4,2.1-0.9,3.6-2.2,4.8c-8.9,8.1-12.2,18.9-14.9,30.9c5.9-3.6,9-8.7,12.2-13.6
		c0.8-1.2,1.4-2.5,2.2-3.7c0.7-1,1.2-2.6,2.7-2.2c1.7,0.5,1.3,2.2,1.4,3.3c4.2-6.9,6.1-14.9,8.3-22.8
		C54,244.7,54.7,245.3,55.1,246.4L55.1,246.4z"/>
	<path class="st6" d="M42.3,240.9c-1-0.6-1.9-1.3-2.9-1.9c-0.4-0.1-0.8-0.3-1.2-0.4c2.3-6,6.6-10,12.4-12.6
		c5.1,1.6,9.8,4.2,15.1,5.1c-1.8,6.2-1.5,12.7-2.3,19.4c-3.2-0.5-5.4-3.1-8.3-4c-0.7-0.3-1.4-0.6-2.1-1
		C48.8,245.5,45.5,243.2,42.3,240.9L42.3,240.9z"/>
	<path class="st7" d="M113.9,205c-4.8,7.8-9,16-14.8,23.1c0.6-7.4,0.2-14.6-3.4-21.3c3.1-6.9,8.3-12.3,12.8-18.3
		C111.9,193.5,112.8,199.3,113.9,205L113.9,205z"/>
	<path class="st8" d="M25.3,193.7c0.7-2.8,1.4-5.5,2-8.3c1.5-5.8,2.6-11.7,5-17.3c4.1-3.1,9-4.5,13.5-6.7c1.1-0.5,2.4-0.5,3.3,0.7
		c0.5,7.6-1.6,14.6-5.1,21.3C36.1,183.6,30.9,189,25.3,193.7L25.3,193.7z"/>
	<path class="st9" d="M32.8,168.3c-1.9,5.7-2.9,11.7-5.5,17.2c0.1-8.1,3.8-15.4,5.3-23.2c1.3-6.8,2.5-13.7,1.1-20.8
		c-0.3-1.5-0.9-2.6-2.3-3.2c-4.5-1.2-7.4-0.1-10,4.4c-3,5.1-4.7,10.8-5.8,16.5c-1.7,8.7-3.7,17.4-4.5,26.2c-0.1,1.1,0,2.5-1.3,3.2
		c-0.1,0.1-0.4-0.1-0.5-0.2C9,188.2,9,187.9,9,187.5c0.1-12.6,1.6-25.1,4.4-37.4c1.1-4.8,2.7-9.6,6.1-13.4c5.2-5.8,13-4.1,15.3,3.4
		c1.3,4.3,1.4,8.7,0.7,13.1c-0.3,2.1-0.9,4.2-0.5,6.3c1,1.5,0.7,3,0,4.6C34.5,165.6,33.7,167,32.8,168.3L32.8,168.3z"/>
	<path class="st10" d="M101,249.2c6-9.2,13.8-17,20.3-25.8c4.2-5.7,8.6-11.3,12.8-17c4.1-5.6,6.6-11.8,5.4-18.9c5.3,1,4.7,5,4,8.6
		c-1.3,6.2-4.6,11.5-8.5,16.4c-5,6.2-9.8,12.5-15.5,18.1c-1,1-2,2-2.4,3.5C112,239.4,107.1,245,101,249.2L101,249.2z"/>
	<path class="st11" d="M9,187.5c2.4-6,1.8-12.4,3.2-18.5c1.7-7.2,2.7-14.6,5.3-21.6c1.4-3.7,3.2-7.2,6.5-9.5c2.3-1.6,5-3.3,7.3,0.3
		c-4.6-0.4-7.2,2.1-9.1,5.9c-5.4,10.6-6.4,22.3-8.8,33.6c-2,9.2-2.4,18.8-5.3,27.9C8.2,199.6,7.1,193.5,9,187.5L9,187.5z"/>
	<path class="st12" d="M117.1,234c1-5,5.5-7.6,8.3-11.4c6.1-8.4,13.8-15.8,16.7-26.3c1-3.6,0.7-6.6-2.6-8.9
		c-2.9-3.7-5.9,0.4-8.8-0.1c3.9-3.2,8-4.8,12.5-1.4c4.5,3.4,4,8,2.3,12.5c-2.7,7.1-7.3,12.9-12.3,18.5
		C127.9,222.7,122.5,228.3,117.1,234L117.1,234z"/>
	<path class="st13" d="M44.2,183.4c0.7-7.4,4.1-14.2,4.5-21.7c-0.7-1.2,0-2.3,0.4-3.4c0.4-1.1,1-2.1,1.8-3
		c2.2-7.1,4.4-14.2,6.5-21.2c0.8-0.7,1.6-0.6,2.4-0.1c1,1.5,0.7,3.1,0.2,4.6c-4.4,15.1-8.4,30.3-12,45.7c-0.2,1-0.7,2-1.5,2.8
		c-1.1,0.9-2.1,0.8-2.9-0.5C43.7,185.5,43.9,184.5,44.2,183.4L44.2,183.4z"/>
	<path class="st14" d="M48.5,205.9c-1,5.6-2,11.2-3,16.8c-0.3,0.4-0.7,0.4-1,0.1c0.1-1.8-2-2.3-2.4-3.9c-2.4-4.9-1.1-9.9-0.4-14.9
		c0.2-0.5,0.6-1,1-1.4c2.9-1.4,4.3,0.8,5.9,2.6C48.6,205.4,48.6,205.7,48.5,205.9L48.5,205.9z"/>
	<path class="st15" d="M50.6,226c-4.1,4.2-8.3,8.4-12.4,12.6c-1.6-0.5-3.1-1.1-4.7-1.6c3.9-5.3,7.9-10.4,14-13.3
		C48.6,224.3,50,224.7,50.6,226L50.6,226z"/>
	<path class="st16" d="M119.2,198c-1,1.4-2.1,2.8-3.1,4.3c-5.3-4.5-5.9-10.5-5.4-16.8c0.4-0.4,0.7-0.7,1.1-1.1
		C114.4,188.8,115.7,194,119.2,198L119.2,198z"/>
	<path class="st17" d="M50.7,155.3c0,1.1,0.3,2.4-0.7,3.3c-3.5,2-6.9,4-10.6,5.3c-1.7,0.6-3.6,1.6-5.4,0.2c0.3-1.5,0.7-3,1-4.5
		C40.4,158.7,45.6,157.2,50.7,155.3L50.7,155.3z"/>
	<path class="st18" d="M47.5,223.6c-4.7,4.4-9.3,8.9-14,13.3c-2.2-0.2-2.3-0.9-0.8-2.4c4-3.9,7.9-7.9,11.8-11.8c0.3,0.1,0.7,0,1-0.1
		C46.2,223,46.9,223.3,47.5,223.6L47.5,223.6z"/>
	<path class="st19" d="M43.2,202.7c-1.6,5.3-0.7,10.8-1,16.2c-2.2-1-3.1-2.9-2.9-5.2c0.4-4.2,0.2-8.4,1.7-12.5
		C42.4,200.7,43,201.5,43.2,202.7z"/>
	<path class="st20" d="M43.2,202.7c-0.8-0.5-1.5-1-2.3-1.5c0.2-5,1.2-9.8,2.6-14.6c0.7,0.2,1.4,0.4,2,0.5c0.4,0.4,0.7,0.9,0.9,1.4
		c-0.3,4.7-0.1,9.6-3.1,13.7L43.2,202.7L43.2,202.7z"/>
	<path class="st21" d="M79.7,264.4c2.3,2.3,3.5-2,5.5-1c-2.7,2.5-5.4,5-8.9,8.3C76.9,268.2,78.3,266.3,79.7,264.4L79.7,264.4z"/>
	<path class="st22" d="M144.8,39.3c5.2,12.6,6,25.9,6.6,39.2c0.5,1.1,0.5,2.1,0,3.2c-3.5,1.1-6.6-0.7-9.8-1.7
		c-10-3.1-19.7-7-28.8-12.5c-1.7-1-3.4-1.9-4.5-3.6c-0.6-1.3,0-2.5,0.8-3.4c8.8-8.9,18.2-17.1,29.7-22.4c1.7-0.1,3.3,0.4,5,0.2
		C144.5,38.5,144.8,38.8,144.8,39.3L144.8,39.3z"/>
	<path class="st23" d="M108.5,63.1c12.9,9.1,27.6,14.2,42.6,18.5c1.1,3.1,1.1,6.2,0.1,9.3c-0.3,1.2-0.7,2.4-1,3.6
		c-18.8-3-35.9-10-51.2-21.5c0.5-5,5.1-6.8,8-9.8C107.5,63,108,63,108.5,63.1L108.5,63.1z"/>
	<path class="st24" d="M61.5,128.6c-0.7-0.1-1.4-0.3-2.2-0.5c7-21.1,15.4-41.4,31.1-57.8c0.6-0.6,1.3-1.2,1.9-1.8
		c1-0.2,1.5,0.4,1.8,1.2c0.1,1.8-1,3-2.1,4.2c-12.3,14-20.3,30.2-26.3,47.6C64.8,124.1,64.5,127.2,61.5,128.6L61.5,128.6z"/>
	<path class="st25" d="M102.1,58.9c10.2-9.5,21.4-17.3,34.5-22.3c1.2-0.5,2-0.2,2.1,1.2c-12,6.5-23.2,14.2-33.8,22.7
		c-0.5,0.2-1,0.3-1.5,0.2C102.6,60.3,102.2,59.8,102.1,58.9L102.1,58.9z"/>
	<path class="st26" d="M144.8,39.3c-0.3-0.2-0.6-0.2-0.9-0.3c-4.3-0.8-5-1.9-2.8-5.8c3.1-5.6,5.9-11.3,9-16.9l0.1-0.1
		c1.9,0,1.8,1.1,1.2,2.4L144.8,39.3L144.8,39.3z"/>
	<path class="st27" d="M152.4,12.1c-1.8,6.4-7.7,16.1-10.5,22c-1.2,2.6-1.3,4.4,2.1,4.9c-1.6,1.7-3,0.2-4.6-0.2
		c-0.4-0.4-1.1-0.5-1.2-1.1c-0.1-1-0.9-1-1.5-1.2c5-4.4,13.1-21.8,16.8-27C154.4,8.2,152.4,12.1,152.4,12.1z"/>
	<path class="st28" d="M102.1,58.9c0.4,0.4,0.8,0.8,1.2,1.3c-0.7,5-5.1,6.9-8.2,9.9c-0.5,0.2-1,0.1-1.4-0.1c-0.4-0.5-0.9-1-1.3-1.5
		C95.2,64.9,98.5,61.7,102.1,58.9z"/>
	<path class="st27" d="M151.4,18.6c-0.1-0.9-0.3-1.8-1.2-2.3c1-2.7,2.4-5.8,4.4-7.9l-0.1,0.6C154.2,12.4,153,15.6,151.4,18.6
		L151.4,18.6z"/>
	<path class="st29" d="M93.7,70c0.3-0.1,0.6-0.2,0.9-0.3c1.9,0.4,3.8,0.8,3.3,3.5c-4.3,7.3-10.1,13.6-14.1,21.1
		c-10.8,20.7-18,42.8-24.4,65.1c-3,10.5-6.4,21-7.6,31.9c-0.3,0.2-0.6,0.3-0.9,0.4c-2.5-0.4-4.1-1.9-5.3-4c-0.1-0.2-0.1-0.4-0.2-0.6
		c4.3-17.8,8.8-35.5,14.1-53c2.2-1.3,11.6-32.1,19-44.2C83,82.7,88.4,76.4,93.7,70L93.7,70z"/>
	<path class="st30" d="M105.6,134.2c-14.1,1.1-23.1-10.8-22.9-21.9c0.2-13.4,9.5-23.1,22.7-23.1c12.8,0,22.5,9.7,22.5,22.6
		C128,125.3,119.1,134.1,105.6,134.2L105.6,134.2z"/>
	<path class="st31" d="M97.9,73.2c-0.4-1.8-2.5-2-3.3-3.5c2.9-3.2,5.8-6.4,8.7-9.6c0.4,0,0.7,0,1-0.1c2.2,0,3.3,1,3.2,3.3
		c-2.8,3.2-5.7,6.5-8.5,9.7C98.7,73.1,98.3,73.2,97.9,73.2L97.9,73.2z"/>
	<path class="st32" d="M110.7,185.4c1.5,5.7,2.3,11.7,5.4,16.9c-0.3,1.3-1.2,2-2.2,2.7c-3.2-5-4.1-10.8-5.5-16.4
		C108.8,187.2,109.2,185.9,110.7,185.4L110.7,185.4z"/>
	<path class="st33" d="M45.7,187.7c1.8,1.2,4.1,1.9,5.3,4c-0.8,4.5-1.6,8.9-2.4,13.4c-1.7-1-3.5-2-5.2-3
		C44.1,197.4,44.9,192.6,45.7,187.7L45.7,187.7z"/>
	<path class="st34" d="M42.3,240.9c4.1,0.4,7.3,2.6,10.7,4.6c-0.3,9.7-4.4,18-9.7,26.6c-1-2.8,1.1-4.8-0.6-6.9
		c-4,7-7.9,13.9-14.3,19c-1.1,0.9-1.9,3.3-3.8,1.9c-1.2-0.9-0.1-2.6,0.2-4c3-12.6,7.5-24.4,18.5-32.9c-4.7-2-7.3,1.6-11.3,2.2
		C34.8,246.8,38.3,243.6,42.3,240.9L42.3,240.9z"/>
	<path class="st35" d="M34,164.1c4.1-0.5,7.7-2.6,11.4-4.2c1.5-0.6,2.7-2.6,4.7-1.3c-0.5,1.1-0.9,2.1-1.4,3.2
		c-5.4,1.7-10.1,5.3-15.8,6.5C32.4,166.7,32.9,165.3,34,164.1L34,164.1z"/>
	<path class="st36" d="M107.6,63.3c-1.1-1.1-2.1-2.2-3.2-3.3c10-9.3,21.1-17,33.8-22.3c0.4,0.4,0.8,0.7,1.2,1.1
		c-11.5,6.6-21.9,14.5-30.9,24.2C108.2,63.2,107.9,63.3,107.6,63.3z"/>
	<path class="st37" d="M121.5,111.8c-0.1,10.1-7.2,18-16.3,17.9c-8.8,0-16-8.1-16-17.7c0-10.2,6.6-17.4,16.1-17.5
		C114.6,94.4,121.6,101.8,121.5,111.8L121.5,111.8z"/>
	<polygon class="st24" points="57.3,134.1 59.7,127.2 63.1,126.9 59.4,135.2 	"/>
	<circle class="st38" cx="155.4" cy="6.7" r="3.5"/>
</g>
</svg>
